<svg width="150" height="72" viewBox="0 0 150 72" fill="none" xmlns="http://www.w3.org/2000/svg">
<g clip-path="url(#clip0_4_10)">
<path d="M80.4758 42.728L87.3068 27.9523H92.0748L83.5933 45.3605V54.4892H79.0087V45.3605L70.5273 27.9523H75.2953L82.1262 42.728H80.4758ZM112.921 54.0222C111.79 54.4184 110.613 54.7015 109.391 54.8713C108.168 55.0412 106.747 55.1261 105.127 55.1261C102.988 55.1261 101.23 54.9138 99.8549 54.4892C98.5101 54.0363 97.4556 53.3004 96.6915 52.2813C95.9274 51.234 95.3925 49.8187 95.0869 48.0354C94.7813 46.2238 94.6284 43.9593 94.6284 41.242C94.6284 38.468 94.7813 36.1893 95.0869 34.406C95.4231 32.5945 95.9885 31.1791 96.7832 30.1601C97.5779 29.1128 98.6782 28.3768 100.084 27.9523C101.521 27.5277 103.354 27.3154 105.586 27.3154C106.227 27.3154 106.961 27.3578 107.786 27.4427C108.642 27.4994 109.467 27.5984 110.262 27.74C111.087 27.8532 111.775 28.0089 112.325 28.207L111.729 31.6887C110.965 31.5188 110.124 31.3773 109.207 31.2641C108.291 31.1508 107.419 31.0659 106.594 31.0093C105.769 30.9527 105.097 30.9244 104.577 30.9244C102.804 30.9244 101.521 31.1225 100.726 31.5188C99.9313 31.8868 99.534 32.7643 99.534 34.1513V50.9651C100.329 51.1632 101.184 51.3189 102.101 51.4322C103.049 51.5454 104.012 51.602 104.99 51.602C106.273 51.602 107.542 51.5029 108.795 51.3048C110.079 51.1066 111.301 50.8519 112.463 50.5405L112.921 54.0222Z" fill="#DAE1EB"/>
<path fill-rule="evenodd" clip-rule="evenodd" d="M15.1956 40.4267C14.5381 40.8462 14.2098 41.4206 14.2098 42.1488C14.2098 42.8493 14.5381 43.4087 15.1956 43.8295L26.9853 51.0588C27.1346 51.1706 27.3584 51.2267 27.658 51.2267C28.1655 51.2267 28.6514 51.0236 29.115 50.6171C29.5787 50.2113 29.8101 49.7282 29.8101 49.1675C29.8101 48.5793 29.585 48.1735 29.1353 47.9487L19.6796 42.1492L29.1353 36.3506C29.585 36.0709 29.8101 35.6643 29.8101 35.1317C29.8101 34.5715 29.5774 34.082 29.115 33.6612C28.6514 33.2405 28.1655 33.0307 27.658 33.0307C27.3584 33.0307 27.1346 33.0868 26.9853 33.1986L15.1956 40.4267ZM45.7637 49.1665C45.7637 49.7267 45.9951 50.2103 46.4586 50.6161C46.9223 51.0226 47.407 51.2257 47.9157 51.2257C48.1841 51.2257 48.3928 51.1695 48.5433 51.0577L60.333 43.8293C60.9896 43.4365 61.3188 42.8771 61.3188 42.1478C61.3188 41.4209 60.9896 40.8464 60.333 40.4256L48.5433 33.1976C48.3932 33.0866 48.1841 33.0297 47.9157 33.0297C47.4074 33.0297 46.9223 33.2394 46.4586 33.6602C45.9951 34.0805 45.7637 34.5701 45.7637 35.1307C45.7637 35.6352 45.9723 36.041 46.3913 36.3495L55.8498 42.1482L46.3913 47.9477C45.9728 48.2005 45.7637 48.6059 45.7637 49.1665Z" fill="white"/>
<path d="M32.2877 54.8522C32.2481 54.6313 32.2548 54.4176 32.3079 54.2098L40.5303 29.0973C40.6762 28.5628 41.0727 28.244 41.7218 28.1413C42.193 28.0662 42.6478 28.1503 43.0861 28.3929C43.524 28.6367 43.7832 28.9792 43.8621 29.4209C43.9067 29.6698 43.8878 29.9006 43.8056 30.1123L35.6047 55.0923C35.434 55.6588 34.9952 55.9986 34.2884 56.1112C33.7865 56.191 33.3465 56.0973 32.9646 55.8314C32.5831 55.5648 32.3581 55.2386 32.2877 54.8522Z" fill="#5A7FED"/>
</g>
<defs>
<clipPath id="clip0_4_10">
<rect width="150" height="72" fill="white"/>
</clipPath>
</defs>
</svg>
